<svg xmlns="http://www.w3.org/2000/svg" xmlns:xlink="http://www.w3.org/1999/xlink" width="500" zoomAndPan="magnify" viewBox="0 0 375 374.999991" height="500" preserveAspectRatio="xMidYMid meet" version="1.0"><defs><g/><clipPath id="a56173e8f9"><path d="M 18.378906 102 L 127 102 L 127 324 L 18.378906 324 Z M 18.378906 102 " clip-rule="nonzero"/></clipPath><clipPath id="b51d4b0fa9"><path d="M 248 12.472656 L 356.628906 12.472656 L 356.628906 325 L 248 325 Z M 248 12.472656 " clip-rule="nonzero"/></clipPath></defs><g clip-path="url(#a56173e8f9)"><path fill="#00d7ff" d="M 108.191406 152.238281 C 106.109375 150.5 40.691406 107.410156 34.242188 103.988281 C 26.148438 99.691406 19.242188 104.332031 18.695312 113.761719 C 18.566406 115.960938 19.265625 221.222656 19.316406 228.320312 C 18.433594 242.1875 22.589844 254.21875 32.386719 264.191406 C 37.136719 269.066406 124.484375 324.015625 124.566406 323.839844 C 126.011719 322.535156 126.542969 206.867188 125.570312 200.363281 C 128.070312 181.324219 123.351562 164.882812 108.191406 152.238281 Z M 108.191406 152.238281 " fill-opacity="1" fill-rule="nonzero"/></g><path fill="#009cdf" d="M 240.527344 319.160156 C 240.652344 301.09375 240.925781 162.8125 240.851562 161.425781 C 240.226562 145.761719 233.859375 132.785156 220.878906 124.128906 C 198.507812 109.210938 149.253906 78.554688 147.613281 77.914062 C 145.722656 77.066406 143.921875 76.707031 142.257812 76.785156 C 140.746094 76.804688 139.417969 77.1875 138.285156 77.933594 C 135.308594 79.671875 133.3125 83.253906 133.03125 88.136719 C 132.921875 89.96875 133.304688 316.828125 133.207031 325.421875 C 133.167969 328.882812 133.894531 330.9375 137.355469 332.96875 C 150.660156 340.785156 163.722656 349.046875 176.585938 357.570312 C 184.132812 362.570312 190.992188 362.4375 198.421875 357.542969 C 209.515625 350.238281 220.542969 342.75 232.171875 336.382812 C 239.667969 332.277344 242.707031 327.320312 240.527344 319.160156 Z M 240.527344 319.160156 " fill-opacity="1" fill-rule="nonzero"/><g clip-path="url(#b51d4b0fa9)"><path fill="#5800ff" d="M 355.84375 105.554688 C 356.027344 102.652344 356.046875 99.804688 355.847656 97.035156 C 355.847656 96.839844 355.847656 96.648438 355.847656 96.453125 C 354.824219 79.125 346.589844 65.996094 332.289062 56.558594 C 316.492188 46.128906 300.804688 35.496094 284.605469 25.714844 C 277.984375 21.71875 271.597656 17.144531 264.183594 14.359375 C 264.144531 14.339844 264.082031 14.304688 264.042969 14.28125 C 261.789062 13.082031 259.632812 12.601562 257.671875 12.703125 C 254.511719 12.503906 252.300781 13.644531 250.976562 16.394531 C 249.578125 18.320312 248.675781 20.914062 248.496094 24.050781 C 248.445312 24.902344 249.695312 304.644531 249.410156 323.320312 C 250.933594 325.65625 252.511719 324.121094 253.878906 323.238281 C 274.964844 309.660156 296.03125 296.039062 317.097656 282.425781 C 337.363281 272.398438 353.671875 258.941406 355.695312 234.5 C 356.519531 224.589844 355.84375 115.703125 355.84375 105.554688 Z M 355.84375 105.554688 " fill-opacity="1" fill-rule="nonzero"/></g><g fill="#009cdf" fill-opacity="1"><g transform="translate(183.043747, 193.124987)"><g><path d="M 3.5625 0.171875 C 2.707031 0.171875 2.039062 -0.0507812 1.5625 -0.5 C 1.09375 -0.945312 0.859375 -1.582031 0.859375 -2.40625 C 0.859375 -2.914062 0.960938 -3.34375 1.171875 -3.6875 C 1.378906 -4.039062 1.703125 -4.328125 2.140625 -4.546875 C 2.585938 -4.773438 3.171875 -4.945312 3.890625 -5.0625 C 4.515625 -5.164062 4.988281 -5.28125 5.3125 -5.40625 C 5.632812 -5.539062 5.851562 -5.6875 5.96875 -5.84375 C 6.082031 -6.007812 6.140625 -6.21875 6.140625 -6.46875 C 6.140625 -6.851562 6.003906 -7.148438 5.734375 -7.359375 C 5.460938 -7.566406 5.03125 -7.671875 4.4375 -7.671875 C 3.882812 -7.671875 3.40625 -7.5625 3 -7.34375 C 2.601562 -7.132812 2.238281 -6.816406 1.90625 -6.390625 L 1.75 -6.390625 L 1.125 -7.265625 C 1.488281 -7.734375 1.953125 -8.101562 2.515625 -8.375 C 3.078125 -8.644531 3.71875 -8.78125 4.4375 -8.78125 C 5.457031 -8.78125 6.207031 -8.554688 6.6875 -8.109375 C 7.164062 -7.671875 7.40625 -7.054688 7.40625 -6.265625 L 7.40625 -1.703125 C 7.40625 -1.222656 7.609375 -0.984375 8.015625 -0.984375 C 8.148438 -0.984375 8.28125 -1.003906 8.40625 -1.046875 L 8.515625 -1.015625 L 8.671875 -0.140625 C 8.578125 -0.078125 8.453125 -0.03125 8.296875 0 C 8.140625 0.0390625 7.984375 0.0625 7.828125 0.0625 C 7.347656 0.0625 6.988281 -0.0390625 6.75 -0.25 C 6.507812 -0.457031 6.351562 -0.765625 6.28125 -1.171875 L 6.125 -1.1875 C 5.875 -0.738281 5.539062 -0.398438 5.125 -0.171875 C 4.707031 0.0546875 4.1875 0.171875 3.5625 0.171875 Z M 3.84375 -0.859375 C 4.320312 -0.859375 4.734375 -0.96875 5.078125 -1.1875 C 5.429688 -1.40625 5.703125 -1.710938 5.890625 -2.109375 C 6.078125 -2.515625 6.171875 -2.984375 6.171875 -3.515625 L 6.171875 -4.609375 L 6.03125 -4.640625 C 5.832031 -4.503906 5.59375 -4.390625 5.3125 -4.296875 C 5.039062 -4.203125 4.660156 -4.117188 4.171875 -4.046875 C 3.671875 -3.984375 3.269531 -3.878906 2.96875 -3.734375 C 2.675781 -3.597656 2.46875 -3.421875 2.34375 -3.203125 C 2.21875 -2.984375 2.15625 -2.71875 2.15625 -2.40625 C 2.15625 -1.894531 2.300781 -1.507812 2.59375 -1.25 C 2.894531 -0.988281 3.3125 -0.859375 3.84375 -0.859375 Z M 3.84375 -0.859375 "/></g></g></g></svg>